<?xml version="1.0" encoding="utf-8"?>
<!-- Generator: Adobe Illustrator 16.0.0, SVG Export Plug-In . SVG Version: 6.00 Build 0)  -->
<!DOCTYPE svg PUBLIC "-//W3C//DTD SVG 1.1//EN" "http://www.w3.org/Graphics/SVG/1.1/DTD/svg11.dtd">
<svg version="1.1" id="Layer_1" xmlns="http://www.w3.org/2000/svg" xmlns:xlink="http://www.w3.org/1999/xlink" x="0px" y="0px"
	 width="200px" height="130px" viewBox="0 0 200 130" enable-background="new 0 0 200 130" xml:space="preserve">
<path fill-rule="evenodd" clip-rule="evenodd" fill="#556880" d="M162.28,123.641c-1.549-0.562-3.157-0.888-4.615-1.786
	c-2.59-1.595-4.476-3.817-6.205-6.229c-4.498-6.272-9.002-12.54-13.487-18.821c-3.187-4.463-6.35-8.943-9.519-13.419
	c-2.059-2.906-4.103-5.824-6.169-8.726c-0.476-0.668-0.9-0.819-1.468,0.038c-0.671,1.013-1.53,1.899-2.31,2.841
	c-0.647,0.782-0.938,1.625-0.897,2.693c0.095,2.436,0.015,4.878,0.038,7.317c0.009,0.925-0.291,1.357-1.31,1.309
	c-2.839-0.139-2.784,0.692-2.781-2.83c0.008-9.879,0.003-19.757,0.003-29.635c0-1.872,0.001-1.872,1.8-1.873
	c2.04,0,2.04,0,2.04,2.077c0,3.479-0.014,6.958,0.006,10.438c0.01,1.63-0.411,3.234-0.25,4.871c0.038,0.385-0.106,0.869,0.376,1.028
	c0.423,0.139,0.632-0.305,0.833-0.559c1.535-1.938,3.032-3.908,4.558-5.855c2.494-3.186,5-6.363,7.503-9.542
	c0.098-0.125,0.264-0.214,0.321-0.352c0.8-1.932,2.322-2.39,4.227-2.112c0.382,0.056,0.854-0.115,1.072,0.332
	c0.225,0.463-0.107,0.843-0.363,1.17c-0.994,1.271-2.022,2.513-3.03,3.772c-2.555,3.192-5.114,6.381-7.65,9.588
	c-0.545,0.689-0.837,1.239-0.087,2.237c2.8,3.722,5.379,7.609,8.079,11.407c4.154,5.841,8.322,11.672,12.518,17.483
	c3.165,4.384,6.36,8.747,9.585,13.087c1.757,2.365,3.757,4.523,6.562,5.646c3.661,1.466,7.626-0.084,10.042-3.019
	c2.71-3.293,2.795-7.462,0.429-11.023c-1.098-1.651-2.743-2.568-4.485-3.339c-0.345-0.152-0.722-0.187-0.827,0.462
	c-0.276,1.701-1.192,3.122-2.225,4.462c-0.528,0.687-1.155,0.812-1.825,0.186c-0.379-0.354-0.802-0.69-1.082-1.116
	c-0.37-0.562-0.6-1.153-0.076-1.844c1.366-1.801,2.35-3.789,2.585-6.074c0.072-0.694,0.516-0.718,1.02-0.69
	c2.192,0.122,4.228,0.762,6.08,1.938c4.73,3,6.528,7.489,6.062,12.851c-0.473,5.428-4.603,9.771-9.727,11.14
	c-0.583,0.155-1.237,0.055-1.748,0.471C164.681,123.641,163.48,123.641,162.28,123.641z"/>
<path fill-rule="evenodd" clip-rule="evenodd" fill="#556880" d="M75.64,7.24c1.267,0.477,2.64,0.458,3.924,0.932
	c2.785,1.026,5.27,2.417,7.057,4.875c0.765,1.052,0.744,1.41-0.334,2.148c-0.291,0.199-0.583,0.399-0.856,0.622
	c-0.654,0.532-1.287,0.468-1.742-0.197c-3.168-4.635-9.422-5.604-14.218-4.292c-6.014,1.645-9.713,7.493-9.705,13.273
	c0.006,4.116,1.182,7.719,4.124,10.564c4.061,3.929,9.947,4.784,15.03,2.804c3.439-1.34,5.829-3.7,6.847-7.335
	c0.361-1.292,0.377-1.311-0.986-1.312c-3.12-0.002-6.24-0.028-9.358,0.014c-1.085,0.015-1.561-0.394-1.466-1.478
	c0.032-0.357,0.032-0.722,0-1.079c-0.069-0.759,0.212-1.075,1.016-1.071c4.759,0.026,9.519,0.02,14.278,0.004
	c0.67-0.002,1.048,0.149,1.041,0.926c-0.038,3.778-1.145,7.173-3.508,10.142c-2.728,3.426-6.381,4.981-10.643,5.53
	c-4.037,0.521-7.842-0.035-11.419-1.931c-5.027-2.665-7.845-6.914-8.768-12.492c-0.736-4.452,0.026-8.628,2.31-12.494
	c1.835-3.105,4.517-5.279,7.822-6.715c1.683-0.731,3.486-0.978,5.236-1.438C72.76,7.24,74.2,7.24,75.64,7.24z"/>
<path fill-rule="evenodd" clip-rule="evenodd" fill="#556880" d="M1.24,26.44c0.817-0.372,1.754-0.32,2.56-0.776
	c1.435-0.811,2.121-2.157,2.712-3.588c0.134-0.324,0.26-0.652,0.407-0.971c0.329-0.709,0.735-0.515,1.01-0.003
	c0.311,0.581,0.487,1.231,0.752,1.838c0.821,1.879,2.574,3.493,5.272,3.285c1.898-0.146,3.592-1.349,4.336-3.384
	c0.214-0.587,0.559-1.11,0.758-1.715c0.174-0.528,0.625-0.755,0.983-0.037c0.21,0.421,0.494,0.821,0.624,1.266
	c0.754,2.582,2.996,3.944,5.233,3.901c1.738-0.034,3.994-1.523,4.868-3.885c0.225-0.606,0.186-1.586,0.968-1.632
	c0.931-0.055,0.79,1.042,1.018,1.612c0.661,1.655,1.638,2.933,3.314,3.617c0.18,0.073,0.372,0.237,0.536,0.211
	c1.297-0.201,1.431,0.534,1.381,1.56c-0.063,1.307-0.408,1.671-1.69,1.31c-1.471-0.414-2.92-0.947-3.975-2.149
	c-0.386-0.439-0.675-0.562-1.133-0.051c-2.929,3.272-8.731,2.826-11.31-0.141c-0.075-0.086-0.182-0.146-0.269-0.214
	c-2.787,2.633-5.924,3.362-9.53,1.89c-0.823-0.335-1.47-0.904-2.123-1.428c-0.545-0.438-0.756-0.394-1.189,0.069
	c-1.146,1.226-2.671,1.729-4.264,2.043c-0.424,0.083-0.872,0.048-1.252-0.228C1.24,28.04,1.24,27.24,1.24,26.44z"/>
<path fill-rule="evenodd" clip-rule="evenodd" fill="#556880" d="M90.785,89.32c-10.284-0.032-17.795-7.518-17.759-17.697
	c0.035-10.024,7.417-17.822,18.235-17.549c9.859,0.25,17.198,7.303,17.209,17.605C108.481,81.896,101.115,89.141,90.785,89.32z
	 M90.784,85.721c7.917,0.094,13.422-6.127,13.638-13.548c0.245-8.443-5.945-14.253-12.842-14.545
	c-8.828-0.374-14.299,6.181-14.484,13.655C76.891,79.606,82.959,85.864,90.784,85.721z"/>
<path fill-rule="evenodd" clip-rule="evenodd" fill="#556880" d="M32.68,71.693c-0.308-10.133,7.686-17.922,18.194-17.64
	c9.171,0.247,17.637,7.042,17.093,18.753c-0.421,9.062-7.456,16.811-18.384,16.492C40.474,89.033,32.459,82.165,32.68,71.693z
	 M63.891,71.734c-0.026-1.11,0.029-2.213-0.244-3.31c-1.161-4.673-3.754-8.117-8.339-9.904c-3.51-1.368-7.041-1.258-10.457,0.146
	c-3.203,1.316-5.516,3.665-6.913,6.891c-1.029,2.376-1.372,4.818-1.202,7.4c0.218,3.307,1.407,6.155,3.639,8.565
	c2.756,2.978,6.208,4.263,10.245,4.212c3.553-0.044,6.613-1.26,9.128-3.711C62.621,79.225,63.985,75.757,63.891,71.734z"/>
<path fill-rule="evenodd" clip-rule="evenodd" fill="#556880" d="M171.881,71.558c0-5.157,0.021-10.315-0.017-15.472
	c-0.008-1.119,0.242-1.639,1.523-1.596c2.875,0.097,5.761-0.083,8.633,0.057c4.27,0.208,8.237,1.313,11.562,4.245
	c3.062,2.7,4.665,6.056,5.201,10.061c0.526,3.933,0.103,7.682-1.684,11.238c-2.359,4.698-6.362,7.178-11.351,8.263
	c-4.29,0.934-8.646,0.32-12.97,0.482c-0.97,0.036-0.891-0.712-0.894-1.328c-0.014-3.117-0.006-6.236-0.006-9.354
	C171.881,75.955,171.881,73.756,171.881,71.558z M179.535,85.473c1.313-0.052,3.606-0.124,5.826-0.724
	c4.522-1.223,7.672-3.904,8.928-8.564c0.634-2.353,0.799-4.7,0.412-7.128c-0.774-4.86-3.276-8.271-7.957-9.994
	c-3.139-1.155-6.408-1.199-9.687-1.176c-0.959,0.006-1.36,0.469-1.355,1.492c0.034,7.755,0.025,15.51,0.015,23.265
	C175.713,85.688,175.516,85.505,179.535,85.473z"/>
<path fill-rule="evenodd" clip-rule="evenodd" fill="#556880" d="M1.72,71.682c0-5.279,0.027-10.558-0.023-15.835
	c-0.011-1.068,0.319-1.381,1.366-1.346c2.899,0.097,2.479-0.369,2.491,2.471c0.02,4.519,0.03,9.037-0.012,13.556
	c-0.011,1.146,0.413,1.539,1.545,1.53c5.038-0.038,10.077-0.016,15.115-0.018c1.326,0,1.59-0.249,1.593-1.598
	c0.009-4.919,0.028-9.837-0.018-14.755c-0.009-0.927,0.214-1.211,1.173-1.191c2.688,0.059,2.688,0.012,2.688,2.688
	c0,9.997,0,19.994,0,29.991c0,1.666-0.003,1.666-1.645,1.666C23.8,88.841,23.8,88.841,23.8,86.679c0-3.198,0.004-6.397-0.002-9.597
	c-0.003-1.357-0.321-1.678-1.678-1.68c-4.958-0.006-9.917-0.006-14.875,0c-1.487,0.002-1.684,0.22-1.685,1.748
	c0,3.439-0.032,6.879,0.02,10.316c0.015,1.003-0.203,1.437-1.316,1.396c-2.982-0.11-2.523,0.381-2.537-2.547
	C1.704,81.438,1.72,76.56,1.72,71.682z"/>
<path fill-rule="evenodd" clip-rule="evenodd" fill="#556880" d="M143.801,71.67c0-5.198,0.021-10.398-0.017-15.597
	c-0.008-1.132,0.274-1.597,1.536-1.583c6.038,0.066,12.078,0.055,18.116,0.007c1.113-0.009,1.685,0.242,1.489,1.449
	c-0.037,0.234-0.032,0.482-0.001,0.718c0.129,0.951-0.265,1.243-1.219,1.235c-4.798-0.042-9.598-0.02-14.396-0.019
	c-1.428,0-1.663,0.219-1.666,1.646c-0.009,3.719-0.01,7.438,0.001,11.158c0.004,1.338,0.275,1.594,1.597,1.594
	c4.239,0.002,8.479,0.024,12.718-0.019c0.838-0.009,1.086,0.206,1.062,1.056c-0.08,2.673,0.283,2.311-2.284,2.32
	c-3.919,0.014-7.839,0.034-11.757-0.018c-0.986-0.014-1.358,0.314-1.348,1.275c0.026,2.359,0.013,4.719,0.007,7.079
	c-0.002,1.06,0.406,1.541,1.571,1.529c4.998-0.053,9.998,0.015,14.996-0.051c1.193-0.015,1.598,0.376,1.441,1.504
	c-0.044,0.313-0.025,0.641-0.003,0.959c0.045,0.66-0.232,0.934-0.908,0.933c-6.679-0.013-13.357-0.009-20.036-0.007
	c-0.971,0-0.891-0.718-0.894-1.333c-0.014-3.08-0.006-6.159-0.006-9.238C143.801,76.069,143.801,73.87,143.801,71.67z"/>
<path fill-rule="evenodd" clip-rule="evenodd" fill="#556880" d="M96.521,24.829c0-5.359,0.02-10.719-0.021-16.078
	c-0.006-0.855,0.239-1.054,1.068-1.049c6.199,0.035,12.398,0.035,18.598,0.001c0.924-0.005,1.372,0.231,1.242,1.212
	c-0.042,0.314-0.042,0.644,0,0.958c0.126,0.963-0.288,1.234-1.229,1.226c-4.839-0.04-9.679,0.003-14.518-0.037
	c-0.963-0.008-1.338,0.223-1.323,1.268c0.058,3.958,0.055,7.919,0.002,11.878c-0.014,1.043,0.444,1.282,1.343,1.279
	c4.239-0.016,8.479,0.035,12.718-0.034c1.237-0.02,1.362,0.601,1.325,1.539c-0.037,0.929,0.055,1.87-1.352,1.859
	c-4.239-0.031-8.479,0.013-12.719-0.03c-0.971-0.01-1.346,0.236-1.316,1.274c0.07,2.478,0.055,4.959,0.006,7.438
	c-0.019,0.902,0.298,1.168,1.18,1.163c5.079-0.033,10.159,0.008,15.238-0.037c1.021-0.009,1.526,0.24,1.365,1.332
	c-0.041,0.274-0.038,0.563-0.001,0.838c0.128,0.958-0.278,1.235-1.225,1.229c-6.438-0.036-12.879-0.042-19.317,0.007
	c-0.962,0.007-1.087-0.322-1.082-1.159C96.538,35.547,96.521,30.188,96.521,24.829z"/>
<path fill-rule="evenodd" clip-rule="evenodd" fill="#556880" d="M133,26.438c0-4.716-0.023-9.433,0.02-14.148
	c0.009-0.957-0.291-1.248-1.237-1.229c-2.677,0.055-5.356-0.022-8.033,0.04c-1.009,0.024-1.361-0.371-1.312-1.304
	c0.02-0.359-0.007-0.72,0.007-1.079c0.027-0.706,0.338-1.016,1.109-1.013c7.594,0.025,15.188,0.022,22.781,0.004
	c0.749-0.001,1.092,0.201,1.077,1.014c-0.049,2.763,0.243,2.335-2.239,2.354c-2.278,0.017-4.558,0.044-6.834-0.014
	c-1.163-0.03-1.518,0.444-1.515,1.56c0.028,9.272,0.017,18.544,0.016,27.817c0,1.598-0.001,1.608-1.547,1.597
	c-2.623-0.019-2.281,0.327-2.289-2.291C132.991,35.311,133,30.875,133,26.438z"/>
<path fill-rule="evenodd" clip-rule="evenodd" fill="#556880" d="M178.695,26.511c-3.008,3.232-7.674,3.444-10.684,1.052
	c-1.251-0.994-1.76-0.991-2.862,0.096c-0.91,0.898-2.274,1.34-3.653,1.428c-0.792,0.051-1.188-0.173-1.152-1.06
	c0.042-1.009-0.141-1.727,1.439-1.945c1.937-0.268,3.17-1.888,3.87-3.786c0.209-0.569,0.173-1.49,0.913-1.566
	c0.943-0.097,0.742,0.948,0.985,1.483c0.681,1.497,1.42,2.874,3.046,3.569c2.892,1.235,5.792-0.166,6.804-2.601
	c0.27-0.649,0.507-1.312,0.811-1.945c0.102-0.211,0.112-0.583,0.519-0.55c0.322,0.027,0.48,0.212,0.599,0.495
	c0.271,0.649,0.544,1.299,0.857,1.929c1.097,2.201,2.824,3.333,5.341,3.091c2.221-0.213,3.455-1.631,4.327-3.514
	c0.323-0.697,0.19-1.936,1.149-1.915c0.805,0.018,0.743,1.209,1.053,1.886c0.861,1.882,2.09,3.321,4.309,3.537
	c0.494,0.048,0.722,0.265,0.715,0.753c-0.005,0.44-0.043,0.885,0.01,1.319c0.092,0.746-0.285,0.871-0.909,0.818
	c-1.832-0.155-3.354-0.968-4.722-2.143c-0.219-0.188-0.346-0.657-0.814-0.205C187.086,30.168,182.316,29.786,178.695,26.511z"/>
</svg>
